<svg width="10" height="11" viewBox="0 0 10 11" fill="none" xmlns="http://www.w3.org/2000/svg">
<line y1="2.5" x2="10" y2="2.5" stroke="white"/>
<line y1="1.5" x2="6" y2="1.5" stroke="white"/>
<line x1="6" y1="7.5" x2="4" y2="7.5" stroke="white"/>
<line x1="4" y1="3.5" x2="6" y2="3.5" stroke="white"/>
<line y1="0.5" x2="10" y2="0.5" stroke="white"/>
<line x1="9" y1="1.5" x2="10" y2="1.5" stroke="white"/>
<line y1="6.5" x2="10" y2="6.5" stroke="white"/>
<line y1="5.5" x2="6" y2="5.5" stroke="white"/>
<line x1="4" y1="7.5" x2="6" y2="7.5" stroke="white"/>
<line y1="4.5" x2="10" y2="4.5" stroke="white"/>
<line x1="9" y1="5.5" x2="10" y2="5.5" stroke="white"/>
<line x1="7" y1="5.5" x2="8" y2="5.5" stroke="white"/>
<line x1="7" y1="9.5" x2="8" y2="9.5" stroke="white"/>
<line x1="7" y1="1.5" x2="8" y2="1.5" stroke="white"/>
<line y1="10.5" x2="10" y2="10.5" stroke="white"/>
<line y1="9.5" x2="6" y2="9.5" stroke="white"/>
<line y1="8.5" x2="10" y2="8.5" stroke="white"/>
<line x1="9" y1="9.5" x2="10" y2="9.5" stroke="white"/>
</svg>
