<svg width="63" height="63" viewBox="0 0 63 63" fill="none" xmlns="http://www.w3.org/2000/svg">
<mask id="mask0_8_74" style="mask-type:luminance" maskUnits="userSpaceOnUse" x="5" y="17" width="53" height="29">
<path d="M5 17H58V45.6906H5V17Z" fill="white"/>
</mask>
<g mask="url(#mask0_8_74)">
<path d="M57.3679 17H24.4977C24.0454 17 23.6857 17.3651 23.6857 17.8119V19.147H20.5905C20.378 19.147 20.2036 19.316 20.2036 19.5339V19.6702H6.52582C5.57765 19.6702 5.01637 20.8036 5.5395 21.6483C7.04896 24.0896 9.0761 26.035 11.4139 27.3755C12.8416 28.2038 14.3892 28.7923 16.0022 29.1302C17.0157 29.3427 18.0566 29.4517 19.1083 29.4517C19.4788 29.4517 19.8494 29.4789 20.2036 29.5389V29.8004C20.2036 30.013 20.378 30.1873 20.5905 30.1873H23.5658C25.9417 30.1873 28.0288 31.8167 28.5737 34.1326C28.5792 34.1435 28.5846 34.1653 28.5846 34.1762C28.9116 35.593 29.0805 37.0044 29.0969 38.4158H27.5656C26.9226 38.4158 26.3177 38.5357 25.9635 38.7319L18.1492 43.0586V45.5925H53.9294V43.0586L46.1151 38.7319C45.7554 38.5357 45.156 38.4158 44.513 38.4158H42.9817C43.1234 32.7867 47.0524 27.9313 52.5453 26.5526L54.5833 26.035C56.6922 25.5064 58.1744 23.61 58.1744 21.4412V17.8119C58.1744 17.3651 57.8093 17 57.3679 17Z" fill="white"/>
</g>
</svg>
